<?xml version="1.0" encoding="UTF-8" standalone="no"?>
<svg
   xmlns:dc="http://purl.org/dc/elements/1.1/"
   xmlns:cc="http://creativecommons.org/ns#"
   xmlns:rdf="http://www.w3.org/1999/02/22-rdf-syntax-ns#"
   xmlns:svg="http://www.w3.org/2000/svg"
   xmlns="http://www.w3.org/2000/svg"
   xmlns:sodipodi="http://sodipodi.sourceforge.net/DTD/sodipodi-0.dtd"
   xmlns:inkscape="http://www.inkscape.org/namespaces/inkscape"
   viewBox="0 0 750 750"
   version="1.1"
   id="svg5"
   sodipodi:docname="icon.svg"
   inkscape:export-filename="/home/tribex/Programming/franz-recipe-upwork/icon.png"
   inkscape:export-xdpi="131.07001"
   inkscape:export-ydpi="131.07001"
   inkscape:version="0.92.2 5c3e80d, 2017-08-06">
  <metadata
     id="metadata11">
    <rdf:RDF>
      <cc:Work
         rdf:about="">
        <dc:format>image/svg+xml</dc:format>
        <dc:type
           rdf:resource="http://purl.org/dc/dcmitype/StillImage" />
      </cc:Work>
    </rdf:RDF>
  </metadata>
  <defs
     id="defs9" />
  <sodipodi:namedview
     pagecolor="#ffffff"
     bordercolor="#666666"
     borderopacity="1"
     objecttolerance="10"
     gridtolerance="10"
     guidetolerance="10"
     inkscape:pageopacity="0"
     inkscape:pageshadow="2"
     inkscape:window-width="1920"
     inkscape:window-height="1052"
     id="namedview7"
     showgrid="false"
     inkscape:zoom="0.31466667"
     inkscape:cx="375"
     inkscape:cy="375"
     inkscape:window-x="0"
     inkscape:window-y="0"
     inkscape:window-maximized="1"
     inkscape:current-layer="svg5" />
  <rect
     fill="#6FDA44"
     class="st0"
     width="750"
     height="750"
     id="rect2" />
  <path
     fill="#FFFFFF"
     id="path22"
     class="st1"
     d="M526.6,416.7c-25.3,0-49-10.7-70.5-28.1l5.2-24.7l0.2-1c4.7-26.2,19.4-70.1,65.1-70.1c34.1,0,61.9,27.8,61.9,61.9C588.5,389,560.7,416.7,526.6,416.7z M526.6,230.2c-58.2,0-103.3,37.8-121.6,100c-28-42-49.2-92.5-61.6-135h-62.7v163c0,32.2-26.2,58.3-58.3,58.3c-32.2,0-58.3-26.2-58.3-58.3v-163h-62.7v163c0,66.7,54.3,121.5,121,121.5c66.7,0,121-54.8,121-121.5V331c12.1,25.3,27.1,51,45.2,73.8l-38.3,180.4h64.1l27.8-130.8c24.3,15.6,52.3,25.5,84.5,25.5c68.7,0,124.6-56.2,124.6-124.9C651.2,286.1,595.3,230.2,526.6,230.2" />
</svg>
